<svg width="100" height="116" viewBox="0 0 100 116" fill="none" xmlns="http://www.w3.org/2000/svg">
<rect y="8" width="100" height="100" rx="10" fill="#0059FF"/>
<path d="M39.5455 71.1818V69.5455C39.5455 65.7955 39.8409 62.8068 40.4318 60.5795C41.0227 58.3523 41.8977 56.5682 43.0568 55.2273C44.2159 53.8636 45.6364 52.6364 47.3182 51.5455C48.7727 50.5909 50.0682 49.6705 51.2045 48.7841C52.3636 47.8977 53.2727 46.9545 53.9318 45.9545C54.6136 44.9545 54.9545 43.8182 54.9545 42.5455C54.9545 41.4091 54.6818 40.4091 54.1364 39.5455C53.5909 38.6818 52.8523 38.0114 51.9205 37.5341C50.9886 37.0568 49.9545 36.8182 48.8182 36.8182C47.5909 36.8182 46.4545 37.1023 45.4091 37.6705C44.3864 38.2386 43.5568 39.0227 42.9205 40.0227C42.3068 41.0227 42 42.1818 42 43.5H24.5455C24.5909 38.5 25.7273 34.4432 27.9545 31.3295C30.1818 28.1932 33.1364 25.8977 36.8182 24.4432C40.5 22.9659 44.5455 22.2273 48.9545 22.2273C53.8182 22.2273 58.1591 22.9432 61.9773 24.375C65.7955 25.7841 68.8068 27.9205 71.0114 30.7841C73.2159 33.625 74.3182 37.1818 74.3182 41.4545C74.3182 44.2045 73.8409 46.625 72.8864 48.7159C71.9545 50.7841 70.6477 52.6136 68.9659 54.2045C67.3068 55.7727 65.3636 57.2045 63.1364 58.5C61.5 59.4545 60.125 60.4432 59.0114 61.4659C57.8977 62.4659 57.0568 63.6136 56.4886 64.9091C55.9205 66.1818 55.6364 67.7273 55.6364 69.5455V71.1818H39.5455ZM47.8636 94.0909C45.2273 94.0909 42.9659 93.1705 41.0795 91.3295C39.2159 89.4659 38.2955 87.2045 38.3182 84.5455C38.2955 81.9545 39.2159 79.7386 41.0795 77.8977C42.9659 76.0568 45.2273 75.1364 47.8636 75.1364C50.3636 75.1364 52.5682 76.0568 54.4773 77.8977C56.4091 79.7386 57.3864 81.9545 57.4091 84.5455C57.3864 86.3182 56.9205 87.9318 56.0114 89.3864C55.125 90.8182 53.9659 91.9659 52.5341 92.8295C51.1023 93.6705 49.5455 94.0909 47.8636 94.0909Z" fill="white"/>
</svg>
